<?xml version="1.0" encoding="utf-8"?>
<!-- Svg Vector Icons : http://www.onlinewebfonts.com/icon -->
<!DOCTYPE svg PUBLIC "-//W3C//DTD SVG 1.1//EN" "http://www.w3.org/Graphics/SVG/1.1/DTD/svg11.dtd">
<svg version="1.1" xmlns="http://www.w3.org/2000/svg" xmlns:xlink="http://www.w3.org/1999/xlink" x="0px" y="0px" viewBox="0 0 1000 1000" enable-background="new 0 0 1000 1000" xml:space="preserve">
<metadata> Svg Vector Icons : http://www.onlinewebfonts.com/icon </metadata>
<g><path d="M871.4,317.1c-34,0-61.6,27.1-61.6,60.5v236.7c0,33.4,27.6,60.5,61.6,60.5c34,0,61.6-27.1,61.6-60.5V377.6C933,344.2,905.4,317.1,871.4,317.1z M128.6,317.1c-34,0-61.6,27.1-61.6,60.5v236.7c0,33.4,27.6,60.5,61.6,60.5c34,0,61.6-27.1,61.6-60.5V377.6C190.2,344.2,162.6,317.1,128.6,317.1z M227.2,751.3c0,25.7,21.5,46.5,48,46.5h54.9v131.6c0,33.5,27.6,60.6,61.6,60.6c34,0,61.6-27.1,61.6-60.6V797.8h95.8v131.7c0,33.5,27.6,60.6,61.6,60.6c34,0,61.6-27.1,61.6-60.6V797.8h54.9c26.5,0,48-20.8,48-46.5V318.9h-548V751.3z M629.9,94.9l50.6-71.2c3-4.2,2.2-9.8-1.7-12.4c-3.9-2.6-9.5-1.3-12.6,2.9l-52.6,73.9C579.1,74.9,540.6,67.6,500,67.6c-40.6,0-79.1,7.4-113.7,20.6l-52.6-73.9c-3-4.2-8.6-5.5-12.6-2.9c-3.9,2.6-4.7,8.2-1.7,12.4l50.6,71.2C289.6,131.1,233.2,200,226,280.4h548C766.8,200,710.4,131.1,629.9,94.9z M384.4,207c-16.7,0-30.3-13.2-30.3-29.4c0-16.2,13.6-29.3,30.3-29.3s30.3,13.1,30.3,29.3C414.7,193.9,401.1,207,384.4,207z M619.4,207c-16.7,0-30.3-13.2-30.3-29.4c0-16.2,13.6-29.3,30.3-29.3c16.8,0,30.3,13.1,30.3,29.3C649.7,193.9,636.1,207,619.4,207z"/></g>
</svg>