<?xml version="1.0" encoding="utf-8"?>
<!-- Generator: Adobe Illustrator 19.0.0, SVG Export Plug-In . SVG Version: 6.00 Build 0)  -->
<svg version="1.1" id="Layer_1" xmlns="http://www.w3.org/2000/svg" xmlns:xlink="http://www.w3.org/1999/xlink" x="0px" y="0px"
	 viewBox="0 0 500 500" style="enable-background:new 0 0 500 500;" xml:space="preserve">
<style type="text/css">
	.st0{fill:url(#SVGID_1_);}
	.st1{fill:url(#SVGID_2_);}
	.st2{fill:url(#SVGID_3_);}
	.st3{fill:#FFFFFF;}
</style>
<g id="XMLID_1_">
	
		<linearGradient id="SVGID_1_" gradientUnits="userSpaceOnUse" x1="-1.047629e-003" y1="5.313247e-005" x2="0.999" y2="5.313247e-005" gradientTransform="matrix(181.8348 121.761 154.982 -142.8578 79.6033 115.1391)">
		<stop  offset="0" style="stop-color:#AA4A9B"/>
		<stop  offset="1" style="stop-color:#F05922"/>
	</linearGradient>
	<path class="st0" d="M275.4,244.9L115,105.4c-8-7.5-19.5-9.7-29.7-5.7c-10.2,4-17.1,13.5-17.7,24.4s5,21.2,14.6,26.5l180.5,112.1
		l0.8,0.5c5,3.3,11.8,1.9,15.1-3.1C281.9,255,280.5,248.2,275.4,244.9z"/>
	
		<linearGradient id="SVGID_2_" gradientUnits="userSpaceOnUse" x1="-6.933798e-004" y1="-2.344722e-003" x2="0.9993" y2="-2.344722e-003" gradientTransform="matrix(284.8515 -152.1052 -262.3925 -165.1244 139.3213 403.3487)">
		<stop  offset="0" style="stop-color:#FFE42E"/>
		<stop  offset="1" style="stop-color:#ED417C"/>
	</linearGradient>
	<path class="st1" d="M432.5,267.2c-0.6-14.1-8.5-26.8-21-33.5c-12.4-6.7-27.5-6.3-39.5,1L146.6,363l-0.4,0.2
		c-6.7,2.8-11.3,9-12.2,16.1s2.1,14.3,7.9,18.6c5.8,4.4,13.4,5.3,20.1,2.5l245.5-94.7l0.6-0.3C423.4,299,433.1,283.8,432.5,267.2z"
		/>
	
		<linearGradient id="SVGID_3_" gradientUnits="userSpaceOnUse" x1="1.113380e-003" y1="-5.584552e-004" x2="1.0011" y2="-5.584552e-004" gradientTransform="matrix(103.2471 -151.1833 -114.0611 -136.8498 148.1568 390.4399)">
		<stop  offset="0" style="stop-color:#FFE42E"/>
		<stop  offset="1" style="stop-color:#F05922"/>
	</linearGradient>
	<path class="st2" d="M251,261.3c2.6-5.1,0.9-11.3-4-14.3c-4.9-3-11.2-1.7-14.5,2.9l-95.1,120.7l-0.2,0.4
		c-4.1,6.3-4.4,14.3-0.8,20.9c3.6,6.6,10.7,10.6,18.2,10.4c7.5-0.2,14.3-4.5,17.6-11.3l78.2-128.6C250.6,262,250.8,261.6,251,261.3z
		"/>
	<rect id="XMLID_2_" x="183.7" y="188.8" width="130.6" height="130.6"/>
	<rect id="XMLID_3_" x="195" y="294.9" class="st3" width="49" height="8.2"/>
	<path id="XMLID_4_" class="st3" d="M194.4,223.2l3.8-3.6c0.7,1.2,2,1.9,3.4,2c0.7,0,1.4-0.4,1.9-0.9c0.5-0.6,0.7-1.3,0.5-2v-13.5
		h5.9v13.5c0.2,2.2-0.6,4.4-2.1,6c-1.6,1.5-3.7,2.2-5.8,2.2C199,226.9,196.2,225.6,194.4,223.2z"/>
	<polygon id="XMLID_5_" class="st3" points="211.2,205.1 228.3,205.1 228.3,210.1 217,210.1 217,213.4 227.3,213.4 227.3,218 
		217,218 217,221.4 228.5,221.4 228.5,226.5 211.2,226.5 211.2,205.2 	"/>
	<polygon id="XMLID_6_" class="st3" points="236.1,210.3 229.7,210.3 229.7,205.2 248.4,205.2 248.4,210.3 242,210.3 242,226.4 
		236.1,226.4 236.1,210.3 	"/>
	<path id="XMLID_7_" class="st3" d="M209.8,241.5c2-0.7,3.3-2.6,3.3-4.7c0-1.3-0.5-2.7-1.4-3.7c-1.6-1.4-3.7-2.1-5.8-2.1H195h0v21
		h10.9c5.1,0,8.1-2,8.1-5.6C214,243.9,212.2,241.9,209.8,241.5z M201,236h3.7c1.6,0,2.6,0.7,2.6,1.9l0.1,0.2c0,1.2-1,1.9-2.8,1.9
		H201V236z M205.3,248H201v-4h4.2c2,0,2.9,0.7,2.9,2C208.1,247.3,207.1,248,205.3,248z"/>
	<path id="XMLID_11_" class="st3" d="M246.4,231h-5.7l-7.9,19l-3.4-4.8c2.7-1,4.5-3.6,4.4-6.5c0.1-1.8-0.6-3.8-1.9-5.2
		c-1.9-1.7-4.4-2.5-6.9-2.5h-10v22h6v-7h2.4l4.3,7h3.9h0h6.1l1.5-4h8.3l1.5,4h6.3L246.4,231z M226.9,241.3c-0.6,0.5-1.4,0.7-2.2,0.7
		H221v-5c0,0,5.3-0.3,5.9,0.2c0.6,0.5,1,1.2,1,2.1C227.9,240.1,227.6,240.8,226.9,241.3z M241,244l2.4-6l2.4,6H241z"/>
	<rect id="XMLID_15_" x="256.1" y="231.4" class="st3" width="5.9" height="21.3"/>
	<polygon id="XMLID_16_" class="st3" points="263.5,231.4 269,231.4 277.8,242.7 277.8,231.4 283.6,231.4 283.6,252.7 278.5,252.7 
		269.4,241 269.4,252.7 263.5,252.7 263.5,231.4 	"/>
	<path id="XMLID_17_" class="st3" d="M284,249.5l3.3-3.9c1.9,1.6,4.4,2.5,6.9,2.6c1.6,0,2.6-0.5,2.6-1.5c0-0.9-0.7-1.4-3.6-2.1
		c-4.5-1-8-2.3-8-6.7c0-3.9,3.1-6.8,8.2-6.8c3.2-0.1,6.3,0.9,8.8,2.8l-2.9,4.2c-1.7-1.3-3.8-2-6-2.1c-1.4,0-2.1,0.6-2.1,1.4
		c0,1,0.7,1.4,3.7,2.1c4.9,1.1,7.9,2.6,7.9,6.6c0,4.4-3.4,6.9-8.6,6.9C290.4,253.2,286.8,251.9,284,249.5z"/>
</g>
</svg>
